<svg width="58" height="58" viewBox="0 0 58 58" fill="none" xmlns="http://www.w3.org/2000/svg">
<path d="M50.5084 4.83331H7.49171C6.78667 4.83331 6.11051 5.11338 5.61198 5.61191C5.11344 6.11045 4.83337 6.78661 4.83337 7.49165V50.5083C4.83337 50.8575 4.90213 51.2031 5.03572 51.5257C5.16931 51.8481 5.36514 52.1413 5.61198 52.388C5.85884 52.635 6.15188 52.8307 6.47441 52.9644C6.79694 53.0978 7.14262 53.1666 7.49171 53.1666H30.6434V34.4375H24.36V27.1875H30.6434V21.75C30.5131 20.4734 30.6639 19.1838 31.0849 17.9716C31.5059 16.7594 32.1871 15.6541 33.0806 14.733C33.974 13.8119 35.0581 13.0974 36.2568 12.6397C37.4557 12.182 38.7402 11.9921 40.02 12.0833C41.9009 12.0717 43.7811 12.1686 45.6509 12.3733V18.8983H41.8084C38.7634 18.8983 38.1834 20.3483 38.1834 22.4508V27.115H45.4334L44.4909 34.365H38.1834V53.1666H50.5084C50.8576 53.1666 51.2032 53.0978 51.5258 52.9644C51.8482 52.8307 52.1413 52.635 52.3881 52.388C52.635 52.1413 52.8308 51.8481 52.9644 51.5257C53.0978 51.2031 53.1667 50.8575 53.1667 50.5083V7.49165C53.1667 7.14256 53.0978 6.79688 52.9644 6.47435C52.8308 6.15182 52.635 5.85878 52.3881 5.61191C52.1413 5.36508 51.8482 5.16925 51.5258 5.03566C51.2032 4.90207 50.8576 4.83331 50.5084 4.83331Z" fill="white"/>
</svg>
