<svg width="153" height="64" viewBox="0 0 153 64" fill="none" xmlns="http://www.w3.org/2000/svg">
<path fill-rule="evenodd" clip-rule="evenodd" d="M93.7119 11.6669V35H70.3788V29.093C70.8601 29.1375 71.3437 29.1677 71.8361 29.1677C80.6832 29.1677 87.8788 21.9713 87.8788 13.125C87.8788 12.6318 87.8494 12.149 87.8041 11.6669H93.7119ZM70.3788 11.6669H84.8776C84.9293 12.1466 84.9619 12.6318 84.9619 13.1258C84.9619 20.374 79.0859 26.2492 71.8369 26.2492C71.467 26.2492 71.1011 26.2309 70.7392 26.1991L70.3788 26.1633V11.6661H84.8776L70.3788 11.6669ZM71.8369 0C77.4528 0 82.2311 3.53261 84.1044 8.49227L84.1991 8.75H67.4611V25.4864C62.3678 23.6847 58.7119 18.8388 58.7119 13.125C58.7119 5.87682 64.5879 0 71.8369 0Z" fill="#FFECEC"/>
<path d="M59.7622 41H92.6622" stroke="#FFECEC" stroke-linecap="round"/>
<path d="M13.2 47.07C14.0667 47.07 14.8267 47.0467 15.48 47C15.48 47.4 15.44 47.7433 15.36 48.03C14.9933 48.03 14.71 48.1333 14.51 48.34C14.31 48.5533 14.1667 48.9033 14.08 49.39C13.9867 49.8767 13.94 50.56 13.94 51.44V63.3C13.6867 63.3933 13.3433 63.44 12.91 63.44L3 50.5V58.81C3 59.7367 3.04667 60.4467 3.14 60.94C3.24 61.44 3.41 61.7967 3.65 62.01C3.89 62.23 4.22667 62.34 4.66 62.34C4.74 62.58 4.78 62.9233 4.78 63.37C4.06 63.3233 3.26667 63.3 2.4 63.3C1.40667 63.3 0.606667 63.3233 0 63.37C0 62.9233 0.04 62.58 0.12 62.34C0.553333 62.34 0.89 62.23 1.13 62.01C1.37 61.7967 1.53667 61.44 1.63 60.94C1.73 60.4467 1.78 59.7367 1.78 58.81V48.9L1.68 48.78C1.45333 48.5067 1.24 48.32 1.04 48.22C0.84 48.1267 0.533333 48.0633 0.12 48.03C0.04 47.7433 0 47.4 0 47C0.48 47.0467 1.07333 47.07 1.78 47.07C2.42 47.07 2.95333 47.0467 3.38 47L12.72 59.38V51.44C12.72 50.5467 12.6733 49.86 12.58 49.38C12.48 48.9 12.31 48.5533 12.07 48.34C11.83 48.1333 11.4933 48.03 11.06 48.03C10.98 47.57 10.94 47.2267 10.94 47C11.6333 47.0467 12.3867 47.07 13.2 47.07ZM28.08 59.89C28.5133 59.97 28.8667 60.1467 29.14 60.42C28.8467 61.1667 28.63 62.1333 28.49 63.32L23.86 63.3C21.5533 63.3 19.6967 63.3133 18.29 63.34C18.29 62.8467 18.33 62.4867 18.41 62.26C18.81 62.2333 19.11 62.17 19.31 62.07C19.51 61.9767 19.65 61.8 19.73 61.54C19.81 61.2867 19.85 60.9033 19.85 60.39V54.08C19.85 53.6133 19.8067 53.26 19.72 53.02C19.6267 52.78 19.48 52.6133 19.28 52.52C19.08 52.4267 18.79 52.3633 18.41 52.33C18.33 52.09 18.29 51.73 18.29 51.25C19.4433 51.2833 20.7 51.3 22.06 51.3C25 51.3 26.9667 51.2833 27.96 51.25C28.1333 52.75 28.2867 53.74 28.42 54.22C28.1467 54.4 27.7867 54.49 27.34 54.49C27.2733 53.8167 26.9967 53.2867 26.51 52.9C26.0233 52.52 25.1633 52.33 23.93 52.33H22.06V56.74H23.26C24.1067 56.74 24.6933 56.6467 25.02 56.46C25.3467 56.2667 25.52 55.9133 25.54 55.4C25.8867 55.2867 26.2533 55.23 26.64 55.23C26.6067 55.63 26.59 56.3033 26.59 57.25C26.59 58.27 26.6067 58.9667 26.64 59.34C26.2067 59.34 25.8533 59.29 25.58 59.19C25.5333 58.6633 25.3467 58.3033 25.02 58.11C24.6933 57.9167 24.1067 57.82 23.26 57.82H22.06V60.34C22.06 60.8533 22.11 61.2433 22.21 61.51C22.3167 61.77 22.5 61.9533 22.76 62.06C23.0267 62.1667 23.4233 62.22 23.95 62.22H24.1C25.0267 62.22 25.74 62.14 26.24 61.98C26.7467 61.82 27.1233 61.5833 27.37 61.27C27.6167 60.9567 27.8533 60.4967 28.08 59.89ZM49.8 51.3C50.3933 51.3 51.0733 51.2833 51.84 51.25C51.84 51.63 51.7833 51.99 51.67 52.33C51.3033 52.4233 51.0033 52.6333 50.77 52.96C50.5367 53.2933 50.2533 53.93 49.92 54.87L46.87 63.32C46.6167 63.4133 46.28 63.46 45.86 63.46C45.3 62.1333 44.42 60.31 43.22 57.99L41.71 54.94L38.21 63.34C37.9833 63.42 37.64 63.46 37.18 63.46C36.28 61.08 35.0467 58.1067 33.48 54.54C33.16 53.8 32.9333 53.3033 32.8 53.05C32.66 52.79 32.5233 52.6167 32.39 52.53C32.25 52.4433 32.0533 52.3833 31.8 52.35C31.72 52.0633 31.68 51.6967 31.68 51.25C32.5733 51.2833 33.4067 51.3 34.18 51.3C34.9 51.3 35.7867 51.2833 36.84 51.25C36.84 51.65 36.8067 52.01 36.74 52.33C36.2467 52.3633 35.8967 52.43 35.69 52.53C35.4833 52.6367 35.38 52.8 35.38 53.02C35.38 53.26 35.5133 53.6767 35.78 54.27C36.02 54.7967 36.3267 55.4367 36.7 56.19C37.4333 57.71 37.96 58.8533 38.28 59.62L41.81 51.27C42.0167 51.19 42.3533 51.15 42.82 51.15C43.14 51.8233 43.6333 52.8333 44.3 54.18C45.52 56.6067 46.4 58.43 46.94 59.65L48.86 54.85C49.0867 54.2233 49.2 53.75 49.2 53.43C49.2 53.0967 49.0933 52.8467 48.88 52.68C48.66 52.5067 48.32 52.39 47.86 52.33C47.7467 52.01 47.69 51.65 47.69 51.25C48.49 51.2833 49.1933 51.3 49.8 51.3ZM56.04 50.12C56.04 49.32 55.9233 48.78 55.69 48.5C55.4567 48.22 55.02 48.0633 54.38 48.03C54.3 47.81 54.26 47.4667 54.26 47C55.14 47.0467 56.11 47.07 57.17 47.07C58.1433 47.07 59.11 47.0467 60.07 47C60.07 47.4667 60.03 47.81 59.95 48.03C59.31 48.0633 58.8733 48.22 58.64 48.5C58.4133 48.78 58.3 49.32 58.3 50.12V60.25C58.3 61.05 58.4133 61.59 58.64 61.87C58.8733 62.15 59.31 62.3067 59.95 62.34C60.03 62.56 60.07 62.9033 60.07 63.37C59.11 63.3233 58.1433 63.3 57.17 63.3C56.05 63.3 55.08 63.3233 54.26 63.37C54.26 62.9033 54.3 62.56 54.38 62.34C55.02 62.3067 55.4567 62.15 55.69 61.87C55.9233 61.59 56.04 61.05 56.04 60.25V50.12ZM80.57 62.34C80.65 62.5933 80.69 62.9267 80.69 63.34C79.8233 63.3133 78.9267 63.3 78 63.3C77.1667 63.3 76.2867 63.3133 75.36 63.34C75.36 63.02 75.4 62.6867 75.48 62.34C76.0067 62.2867 76.3667 62.1867 76.56 62.04C76.7533 61.8867 76.85 61.5933 76.85 61.16C76.85 61.0467 76.8167 60.7033 76.75 60.13L76.01 54.42L71.74 62.98C71.48 63.08 71.1667 63.13 70.8 63.13L66.36 54.46L65.69 59.53C65.6433 59.9633 65.62 60.33 65.62 60.63C65.62 61.2567 65.7267 61.69 65.94 61.93C66.1533 62.17 66.5267 62.3067 67.06 62.34C67.14 62.5933 67.18 62.9267 67.18 63.34C66.3133 63.3133 65.5533 63.3 64.9 63.3C64.1933 63.3 63.4733 63.3133 62.74 63.34C62.74 62.9267 62.78 62.5933 62.86 62.34C63.24 62.3067 63.54 62.21 63.76 62.05C63.9733 61.89 64.14 61.6133 64.26 61.22C64.38 60.8267 64.48 60.2467 64.56 59.48L65.23 54.2C65.25 54.0867 65.26 53.9267 65.26 53.72C65.26 53.1733 65.15 52.8067 64.93 52.62C64.7167 52.4267 64.3467 52.33 63.82 52.33C63.74 52.0433 63.7 51.6833 63.7 51.25C64.3067 51.2833 64.89 51.3 65.45 51.3C65.8967 51.3 66.4733 51.2833 67.18 51.25L71.86 60.25L76.3 51.25C77 51.2833 77.6 51.3 78.1 51.3C78.48 51.3 79.0533 51.2833 79.82 51.25C79.82 51.71 79.78 52.07 79.7 52.33C79.22 52.33 78.86 52.4367 78.62 52.65C78.38 52.87 78.26 53.2333 78.26 53.74C78.26 53.9533 78.27 54.1233 78.29 54.25L79.03 59.91C79.13 60.5967 79.23 61.1 79.33 61.42C79.4367 61.74 79.58 61.9667 79.76 62.1C79.9467 62.2267 80.2167 62.3067 80.57 62.34ZM96.07 62.26C96.15 62.5 96.19 62.86 96.19 63.34C95.55 63.3133 94.7267 63.3 93.72 63.3C92.6667 63.3 91.82 63.3133 91.18 63.34C91.18 62.8467 91.2267 62.4867 91.32 62.26C91.6867 62.2133 91.9467 62.1467 92.1 62.06C92.2533 61.9733 92.33 61.84 92.33 61.66C92.33 61.52 92.25 61.2733 92.09 60.92L91.61 59.89C89.3033 59.89 87.4867 59.93 86.16 60.01L85.9 60.63C85.74 60.9967 85.66 61.2867 85.66 61.5C85.66 61.9467 85.9867 62.2 86.64 62.26C86.7333 62.5533 86.78 62.9133 86.78 63.34C86.1733 63.3133 85.51 63.3 84.79 63.3C84.17 63.3 83.6033 63.3133 83.09 63.34C83.09 62.96 83.1367 62.6 83.23 62.26C83.5833 62.2 83.8567 62.0533 84.05 61.82C84.2433 61.5867 84.5 61.12 84.82 60.42L88.94 51.27C89.2467 51.21 89.5667 51.18 89.9 51.18L94.32 60.34C94.6733 61.08 94.9733 61.5767 95.22 61.83C95.4667 62.09 95.75 62.2333 96.07 62.26ZM86.64 58.9H91.13L89.69 55.88C89.27 55.0333 88.98 54.36 88.82 53.86C88.6933 54.26 88.54 54.6567 88.36 55.05C88.1733 55.4433 88.0567 55.6867 88.01 55.78L86.64 58.9ZM105.1 63.46C103.72 63.46 102.503 63.1967 101.45 62.67C100.39 62.1433 99.57 61.4033 98.99 60.45C98.4033 59.4967 98.11 58.4067 98.11 57.18C98.11 55.9 98.4533 54.8067 99.14 53.9C99.8333 52.9933 100.74 52.31 101.86 51.85C102.98 51.3833 104.18 51.15 105.46 51.15C106.433 51.15 107.363 51.2267 108.25 51.38C109.137 51.5333 109.887 51.7467 110.5 52.02C110.353 52.6267 110.28 53.5467 110.28 54.78C109.993 54.9067 109.587 54.97 109.06 54.97C109.007 53.9633 108.677 53.25 108.07 52.83C107.463 52.4167 106.64 52.21 105.6 52.21C104.493 52.21 103.56 52.4167 102.8 52.83C102.04 53.25 101.477 53.8067 101.11 54.5C100.743 55.1933 100.56 55.95 100.56 56.77C100.56 58.4033 100.987 59.73 101.84 60.75C102.7 61.7767 103.92 62.29 105.5 62.29C106 62.29 106.387 62.28 106.66 62.26C106.927 62.2467 107.207 62.2 107.5 62.12C107.753 62.0533 107.937 61.93 108.05 61.75C108.163 61.5633 108.22 61.2533 108.22 60.82V60.08C108.22 59.6133 108.18 59.28 108.1 59.08C108.02 58.88 107.86 58.7467 107.62 58.68C107.38 58.6067 106.987 58.56 106.44 58.54C106.347 58.2533 106.3 57.8867 106.3 57.44C106.667 57.4733 107.537 57.49 108.91 57.49C110.27 57.49 111.11 57.4733 111.43 57.44C111.43 57.8867 111.39 58.2533 111.31 58.54C111.01 58.56 110.793 58.6067 110.66 58.68C110.533 58.7467 110.447 58.8733 110.4 59.06C110.353 59.2467 110.33 59.54 110.33 59.94V60.54C110.33 60.9067 110.35 61.1967 110.39 61.41C110.43 61.63 110.507 61.86 110.62 62.1C109.98 62.5133 109.183 62.8433 108.23 63.09C107.277 63.3367 106.233 63.46 105.1 63.46ZM115.3 63.34C115.3 62.8467 115.34 62.4867 115.42 62.26C115.82 62.2333 116.12 62.17 116.32 62.07C116.52 61.9767 116.66 61.81 116.74 61.57C116.82 61.33 116.86 60.97 116.86 60.49V54.08C116.86 53.6133 116.82 53.26 116.74 53.02C116.66 52.78 116.52 52.6133 116.32 52.52C116.12 52.4267 115.82 52.3633 115.42 52.33C115.34 52.09 115.3 51.73 115.3 51.25C116.32 51.2833 117.213 51.3 117.98 51.3C118.62 51.3 119.5 51.2833 120.62 51.25C120.62 51.7433 120.59 52.1033 120.53 52.33C119.95 52.3633 119.56 52.49 119.36 52.71C119.16 52.9367 119.06 53.3933 119.06 54.08V60.49C119.06 61.1767 119.16 61.6367 119.36 61.87C119.56 62.1033 119.95 62.2333 120.53 62.26C120.59 62.5 120.62 62.86 120.62 63.34C119.533 63.3133 118.653 63.3 117.98 63.3C117.18 63.3 116.287 63.3133 115.3 63.34ZM135.91 51.3C136.517 51.3 137.19 51.2833 137.93 51.25C137.93 51.73 137.897 52.09 137.83 52.33C137.497 52.3633 137.24 52.45 137.06 52.59C136.887 52.7367 136.763 52.98 136.69 53.32C136.617 53.6667 136.58 54.1767 136.58 54.85V63.32C136.373 63.4133 136.047 63.46 135.6 63.46L126.98 53.94V59.7C126.98 60.3867 127.027 60.9067 127.12 61.26C127.207 61.6067 127.353 61.8533 127.56 62C127.767 62.1467 128.07 62.2333 128.47 62.26C128.55 62.52 128.59 62.88 128.59 63.34C127.73 63.3133 127.02 63.3 126.46 63.3C125.707 63.3 124.977 63.3133 124.27 63.34C124.27 62.88 124.31 62.52 124.39 62.26C124.79 62.2333 125.09 62.1467 125.29 62C125.49 61.8533 125.633 61.6067 125.72 61.26C125.813 60.9067 125.86 60.3867 125.86 59.7V52.69L125.83 52.66C125.717 52.5533 125.573 52.48 125.4 52.44C125.227 52.4 124.89 52.3633 124.39 52.33C124.31 52.0433 124.27 51.6833 124.27 51.25C124.85 51.2833 125.41 51.3 125.95 51.3C126.45 51.3 126.953 51.2833 127.46 51.25L135.46 60.2V54.85C135.46 54.1767 135.413 53.6667 135.32 53.32C135.233 52.98 135.087 52.7367 134.88 52.59C134.673 52.45 134.36 52.3633 133.94 52.33C133.88 51.9633 133.85 51.6033 133.85 51.25C134.65 51.2833 135.337 51.3 135.91 51.3ZM151.37 59.89C151.803 59.97 152.153 60.1467 152.42 60.42C152.133 61.1667 151.92 62.1333 151.78 63.32L147.14 63.3C144.84 63.3 142.987 63.3133 141.58 63.34C141.58 62.8467 141.62 62.4867 141.7 62.26C142.1 62.2333 142.4 62.17 142.6 62.07C142.8 61.9767 142.94 61.8 143.02 61.54C143.1 61.2867 143.14 60.9033 143.14 60.39V54.08C143.14 53.6133 143.093 53.26 143 53.02C142.913 52.78 142.77 52.6133 142.57 52.52C142.37 52.4267 142.08 52.3633 141.7 52.33C141.62 52.09 141.58 51.73 141.58 51.25C142.727 51.2833 143.98 51.3 145.34 51.3C148.287 51.3 150.257 51.2833 151.25 51.25C151.423 52.75 151.573 53.74 151.7 54.22C151.433 54.4 151.073 54.49 150.62 54.49C150.56 53.8167 150.287 53.2867 149.8 52.9C149.307 52.52 148.447 52.33 147.22 52.33H145.34V56.74H146.54C147.393 56.74 147.983 56.6467 148.31 56.46C148.637 56.2667 148.807 55.9133 148.82 55.4C149.173 55.2867 149.543 55.23 149.93 55.23C149.897 55.63 149.88 56.3033 149.88 57.25C149.88 58.27 149.897 58.9667 149.93 59.34C149.497 59.34 149.143 59.29 148.87 59.19C148.823 58.6633 148.637 58.3033 148.31 58.11C147.983 57.9167 147.393 57.82 146.54 57.82H145.34V60.34C145.34 60.8533 145.393 61.2433 145.5 61.51C145.607 61.77 145.79 61.9533 146.05 62.06C146.317 62.1667 146.713 62.22 147.24 62.22H147.38C148.313 62.22 149.03 62.14 149.53 61.98C150.037 61.82 150.413 61.5833 150.66 61.27C150.907 60.9567 151.143 60.4967 151.37 59.89Z" fill="#FFECEC"/>
</svg>
