<svg width="58" height="58" viewBox="0 0 58 58" fill="none" xmlns="http://www.w3.org/2000/svg">
<path d="M53.1667 14.0166C51.3501 14.8046 49.4291 15.3256 47.4634 15.5632C49.5374 14.3243 51.0915 12.3751 51.8375 10.0774C49.8887 11.2376 47.7553 12.0549 45.53 12.4941C44.0426 10.8811 42.0621 9.80744 39.8987 9.44146C37.7356 9.07546 35.5117 9.43784 33.5767 10.4718C31.6415 11.5057 30.1042 13.1527 29.2059 15.1544C28.3077 17.1562 28.0993 19.3994 28.6134 21.5324C24.6728 21.3331 20.8183 20.307 17.3001 18.5209C13.782 16.7348 10.6789 14.2285 8.19254 11.1649C7.32046 12.6878 6.86221 14.4125 6.86337 16.1674C6.86028 17.7972 7.26024 19.4024 8.02763 20.8402C8.79499 22.278 9.90601 23.5037 11.2617 24.4083C9.68599 24.3653 8.14394 23.9425 6.76671 23.1757V23.2966C6.77852 25.5802 7.57868 27.7895 9.03187 29.5507C10.4851 31.3122 12.5021 32.5177 14.7417 32.9633C13.8796 33.2255 12.9845 33.364 12.0834 33.3741C11.4596 33.3669 10.8374 33.3101 10.2225 33.205C10.8603 35.1692 12.0945 36.8858 13.7535 38.1159C15.4124 39.346 17.4135 40.0284 19.4784 40.0683C15.9916 42.8117 11.6868 44.3091 7.25004 44.3216C6.44225 44.3243 5.63508 44.2757 4.83337 44.1767C9.36325 47.1013 14.6422 48.654 20.0342 48.6475C23.7551 48.6861 27.4464 47.9829 30.8925 46.5788C34.3387 45.175 37.4705 43.0983 40.1051 40.4707C42.7398 37.8428 44.8244 34.7164 46.2372 31.2738C47.6499 27.8313 48.3624 24.1417 48.3334 20.4207C48.3334 20.0099 48.3334 19.5749 48.3334 19.1399C50.2297 17.7257 51.8653 15.992 53.1667 14.0166Z" fill="white"/>
</svg>
