<svg width="58" height="58" viewBox="0 0 58 58" fill="none" xmlns="http://www.w3.org/2000/svg">
<path d="M53.1667 15.8291C53.1396 14.7865 53.0589 13.746 52.925 12.7116C52.7445 11.8057 52.4439 10.9279 52.0309 10.1016C51.599 9.2053 51.0188 8.3883 50.315 7.68498C49.6048 6.98946 48.7892 6.41041 47.8984 5.96915C47.0709 5.56421 46.1932 5.27162 45.2884 5.09915C44.264 4.94569 43.2308 4.8569 42.195 4.83331H15.8292C14.7866 4.86048 13.7461 4.94112 12.7117 5.07498C11.8057 5.25543 10.928 5.55614 10.1017 5.96915C9.20537 6.4011 8.38836 6.98117 7.68504 7.68498C6.98952 8.39526 6.41047 9.21084 5.96921 10.1016C5.56427 10.929 5.27168 11.8068 5.09921 12.7116C4.94575 13.7361 4.85696 14.7693 4.83337 15.805C4.83337 16.2641 4.83337 16.9166 4.83337 17.11V40.89C4.83337 41.1558 4.83337 41.7358 4.83337 42.1708C4.86054 43.2134 4.94118 44.254 5.07504 45.2883C5.25549 46.1943 5.5562 47.0721 5.96921 47.8983C6.40116 48.7947 6.98124 49.6117 7.68504 50.315C8.39532 51.0105 9.2109 51.5895 10.1017 52.0308C10.9291 52.4358 11.8069 52.7283 12.7117 52.9008C13.7362 53.0543 14.7694 53.143 15.805 53.1666H42.1709C43.2134 53.1396 44.254 53.0589 45.2884 52.925C46.1944 52.7445 47.0721 52.4438 47.8984 52.0308C48.7947 51.599 49.6118 51.0187 50.315 50.315C51.0106 49.6047 51.5896 48.7891 52.0309 47.8983C52.4359 47.0708 52.7283 46.1931 52.9009 45.2883C53.0543 44.2639 53.143 43.2308 53.1667 42.195C53.1667 41.7358 53.1667 41.1558 53.1667 40.89V17.11C53.1667 16.9166 53.1667 16.2641 53.1667 15.8291ZM29.5559 45.9166C26.6537 45.9024 23.8021 45.1542 21.2667 43.7416L12.0834 46.1583L14.5 37.1683C12.9416 34.5499 12.1075 31.5638 12.0834 28.5166C12.093 25.092 13.1158 21.7469 15.0229 18.9024C16.93 16.058 19.6362 13.8415 22.8006 12.5321C25.9649 11.2227 29.4462 10.879 32.8056 11.5443C36.165 12.2095 39.2523 13.8539 41.6788 16.2704C44.1054 18.687 45.7628 21.7675 46.4419 25.1241C47.1212 28.4806 46.792 31.9633 45.4957 35.133C44.1994 38.3029 41.9942 41.0183 39.1578 42.9371C36.3213 44.8562 32.9803 45.8927 29.5559 45.9166ZM29.5559 14.1858C26.9937 14.2151 24.4852 14.9228 22.2855 16.2369C20.0858 17.551 18.2736 19.4245 17.0334 21.6667C15.7932 23.9088 15.1693 26.4395 15.2252 29.0012C15.2812 31.5629 16.0149 34.0641 17.3517 36.25L17.69 36.8058L16.24 42.0983L21.75 40.6L22.2817 40.9141C24.4799 42.209 26.9807 42.9009 29.5317 42.92C33.3773 42.92 37.0654 41.3924 39.7847 38.6729C42.5041 35.9537 44.0317 32.2656 44.0317 28.42C44.0317 24.5743 42.5041 20.8862 39.7847 18.1669C37.0654 15.4477 33.3773 13.92 29.5317 13.92L29.5559 14.1858ZM38.0142 34.7758C37.6976 35.3039 37.2737 35.7594 36.7701 36.1132C36.2665 36.467 35.694 36.7113 35.09 36.83C34.1874 36.995 33.2584 36.9368 32.3834 36.6608C31.56 36.4034 30.7531 36.0968 29.9667 35.7425C26.979 34.2434 24.4311 31.9952 22.5717 29.2175C21.5613 27.9306 20.9482 26.3767 20.8075 24.7466C20.7932 24.0695 20.9212 23.3968 21.1835 22.7724C21.4458 22.1479 21.8364 21.5855 22.33 21.1216C22.4754 20.9568 22.6538 20.8243 22.8536 20.7327C23.0534 20.6411 23.2702 20.5925 23.49 20.59H24.1667C24.4325 20.59 24.795 20.59 25.1334 21.3391C25.4717 22.0883 26.3659 24.3358 26.4867 24.5533C26.5462 24.6693 26.5771 24.7976 26.5771 24.9279C26.5771 25.0582 26.5462 25.1865 26.4867 25.3025C26.3799 25.5652 26.2332 25.8097 26.0517 26.0275C25.8342 26.2933 25.5925 26.6075 25.3992 26.8008C25.2059 26.9941 24.9642 27.2358 25.2059 27.6708C25.8635 28.7805 26.6774 29.7897 27.6225 30.6675C28.6518 31.5771 29.8287 32.3043 31.1025 32.8183C31.5375 33.0358 31.8034 33.0116 32.045 32.8183C32.2867 32.625 33.1325 31.5616 33.4225 31.1266C33.7125 30.6916 34.0025 30.7641 34.3892 30.9091C34.7759 31.0541 36.9267 32.0933 37.3617 32.3108C37.7967 32.5283 38.0625 32.625 38.1834 32.8183C38.2883 33.4508 38.23 34.0996 38.0142 34.7033V34.7758Z" fill="white"/>
</svg>
